<mxfile host="app.diagrams.net" modified="2021-12-06T08:35:18.774Z" agent="5.0 (Windows NT 10.0; Win64; x64) AppleWebKit/537.36 (KHTML, like Gecko) Chrome/96.0.4664.55 Safari/537.36 Edg/96.0.1054.41" etag="o0DnY7qAnzi7098hoqZ5" version="15.8.8" type="github">
  <diagram id="prtHgNgQTEPvFCAcTncT" name="Page-1">
    <mxGraphModel dx="1022" dy="468" grid="1" gridSize="10" guides="1" tooltips="1" connect="1" arrows="1" fold="1" page="1" pageScale="1" pageWidth="827" pageHeight="1169" math="0" shadow="0">
      <root>
        <mxCell id="0" />
        <mxCell id="1" parent="0" />
        <mxCell id="Av_DuFVY2FSfUa3rKq9S-3" value="" style="edgeStyle=orthogonalEdgeStyle;rounded=0;orthogonalLoop=1;jettySize=auto;html=1;" edge="1" parent="1" source="Av_DuFVY2FSfUa3rKq9S-1" target="Av_DuFVY2FSfUa3rKq9S-2">
          <mxGeometry relative="1" as="geometry" />
        </mxCell>
        <mxCell id="Av_DuFVY2FSfUa3rKq9S-1" value="开始" style="ellipse;whiteSpace=wrap;html=1;" vertex="1" parent="1">
          <mxGeometry x="60" y="200" width="120" height="80" as="geometry" />
        </mxCell>
        <mxCell id="Av_DuFVY2FSfUa3rKq9S-5" value="" style="edgeStyle=orthogonalEdgeStyle;rounded=0;orthogonalLoop=1;jettySize=auto;html=1;" edge="1" parent="1" source="Av_DuFVY2FSfUa3rKq9S-2" target="Av_DuFVY2FSfUa3rKq9S-4">
          <mxGeometry relative="1" as="geometry" />
        </mxCell>
        <mxCell id="Av_DuFVY2FSfUa3rKq9S-2" value="接触到原始业务需求，梳理业务方的需求" style="whiteSpace=wrap;html=1;" vertex="1" parent="1">
          <mxGeometry x="260" y="210" width="120" height="60" as="geometry" />
        </mxCell>
        <mxCell id="Av_DuFVY2FSfUa3rKq9S-7" value="" style="edgeStyle=orthogonalEdgeStyle;rounded=0;orthogonalLoop=1;jettySize=auto;html=1;" edge="1" parent="1" source="Av_DuFVY2FSfUa3rKq9S-4" target="Av_DuFVY2FSfUa3rKq9S-6">
          <mxGeometry relative="1" as="geometry" />
        </mxCell>
        <mxCell id="Av_DuFVY2FSfUa3rKq9S-4" value="对业务需求提出自己的理解和判断" style="whiteSpace=wrap;html=1;" vertex="1" parent="1">
          <mxGeometry x="460" y="210" width="120" height="60" as="geometry" />
        </mxCell>
        <mxCell id="Av_DuFVY2FSfUa3rKq9S-9" value="" style="edgeStyle=orthogonalEdgeStyle;rounded=0;orthogonalLoop=1;jettySize=auto;html=1;" edge="1" parent="1" source="Av_DuFVY2FSfUa3rKq9S-6" target="Av_DuFVY2FSfUa3rKq9S-8">
          <mxGeometry relative="1" as="geometry" />
        </mxCell>
        <mxCell id="Av_DuFVY2FSfUa3rKq9S-6" value="根据自己的判断提出对应的解决方案" style="whiteSpace=wrap;html=1;" vertex="1" parent="1">
          <mxGeometry x="660" y="210" width="120" height="60" as="geometry" />
        </mxCell>
        <mxCell id="Av_DuFVY2FSfUa3rKq9S-11" value="" style="edgeStyle=orthogonalEdgeStyle;rounded=0;orthogonalLoop=1;jettySize=auto;html=1;" edge="1" parent="1" source="Av_DuFVY2FSfUa3rKq9S-8" target="Av_DuFVY2FSfUa3rKq9S-10">
          <mxGeometry relative="1" as="geometry" />
        </mxCell>
        <mxCell id="Av_DuFVY2FSfUa3rKq9S-8" value="针对粗略方案和业务方进行沟通和同频，确定方向" style="whiteSpace=wrap;html=1;" vertex="1" parent="1">
          <mxGeometry x="860" y="210" width="120" height="60" as="geometry" />
        </mxCell>
        <mxCell id="Av_DuFVY2FSfUa3rKq9S-13" value="" style="edgeStyle=orthogonalEdgeStyle;rounded=0;orthogonalLoop=1;jettySize=auto;html=1;" edge="1" parent="1" source="Av_DuFVY2FSfUa3rKq9S-10" target="Av_DuFVY2FSfUa3rKq9S-12">
          <mxGeometry relative="1" as="geometry" />
        </mxCell>
        <mxCell id="Av_DuFVY2FSfUa3rKq9S-10" value="根据同频下的方案进行细节设计" style="whiteSpace=wrap;html=1;" vertex="1" parent="1">
          <mxGeometry x="1060" y="210" width="120" height="60" as="geometry" />
        </mxCell>
        <mxCell id="Av_DuFVY2FSfUa3rKq9S-12" value="结束" style="ellipse;whiteSpace=wrap;html=1;" vertex="1" parent="1">
          <mxGeometry x="1260" y="210" width="120" height="60" as="geometry" />
        </mxCell>
      </root>
    </mxGraphModel>
  </diagram>
</mxfile>
